<svg xmlns="http://www.w3.org/2000/svg" width="1200" height="630" viewBox="0 0 1200 630">
  <defs>
    <linearGradient id="bg" x1="0" x2="1" y1="0" y2="1">
      <stop offset="0%" stop-color="#111827"/>
      <stop offset="100%" stop-color="#0f172a"/>
    </linearGradient>
    <linearGradient id="accent" x1="0" x2="1">
      <stop offset="0%" stop-color="#14b8a6"/>
      <stop offset="100%" stop-color="#60a5fa"/>
    </linearGradient>
  </defs>
  <rect width="1200" height="630" rx="28" fill="url(#bg)"/>
  <circle cx="230" cy="180" r="180" fill="#134e4a" opacity="0.4"/>
  <circle cx="980" cy="510" r="210" fill="#1d4ed8" opacity="0.22"/>
  <rect x="90" y="90" width="1020" height="450" rx="34" fill="#0b1120" stroke="rgba(255,255,255,0.08)"/>
  <rect x="120" y="120" width="220" height="48" rx="24" fill="url(#accent)" opacity="0.95"/>
  <text x="160" y="152" font-family="Segoe UI, Arial, sans-serif" font-size="26" font-weight="700" fill="#03111b">PDF</text>
  <text x="120" y="270" font-family="Segoe UI, Arial, sans-serif" font-size="70" font-weight="800" fill="#f8fafc">Beginner</text>
  <text x="120" y="355" font-family="Segoe UI, Arial, sans-serif" font-size="120" font-weight="900" fill="url(#accent)">150</text>
  <text x="120" y="398" font-family="Segoe UI, Arial, sans-serif" font-size="28" fill="#cbd5e1" letter-spacing="2">PROJECTS</text>
  <g transform="translate(760 170)">
    <circle cx="118" cy="128" r="86" fill="#0f172a" stroke="#2dd4bf" stroke-width="5"/>
    <path d="M118 50 L150 90 L118 170 L87 90 Z" fill="#5eead4" opacity="0.9"/>
    <path d="M76 142 L118 80 L160 142" fill="none" stroke="#99f6e4" stroke-width="12" stroke-linecap="round" stroke-linejoin="round"/>
    <circle cx="118" cy="78" r="11" fill="#f0fdfa"/>
    <rect x="70" y="110" width="96" height="14" rx="7" fill="#99f6e4" opacity="0.7"/>
  </g>
</svg>
