<svg xmlns="http://www.w3.org/2000/svg" width="1200" height="630" viewBox="0 0 1200 630">
  <defs>
    <linearGradient id="bg" x1="0" x2="1" y1="0" y2="1">
      <stop offset="0%" stop-color="#0f172a"/>
      <stop offset="100%" stop-color="#111827"/>
    </linearGradient>
    <linearGradient id="accent" x1="0" x2="1">
      <stop offset="0%" stop-color="#22c55e"/>
      <stop offset="100%" stop-color="#06b6d4"/>
    </linearGradient>
  </defs>
  <rect width="1200" height="630" rx="28" fill="url(#bg)"/>
  <circle cx="950" cy="110" r="170" fill="#14532d" opacity="0.45"/>
  <circle cx="200" cy="520" r="200" fill="#0f766e" opacity="0.25"/>
  <rect x="90" y="90" width="1020" height="450" rx="34" fill="#0b1120" stroke="rgba(255,255,255,0.08)"/>
  <rect x="120" y="120" width="200" height="48" rx="24" fill="url(#accent)" opacity="0.92"/>
  <text x="160" y="152" font-family="Segoe UI, Arial, sans-serif" font-size="26" font-weight="700" fill="#03111b">PDF</text>
  <text x="120" y="265" font-family="Segoe UI, Arial, sans-serif" font-size="68" font-weight="800" fill="#f8fafc">Foundation</text>
  <text x="120" y="350" font-family="Segoe UI, Arial, sans-serif" font-size="120" font-weight="900" fill="url(#accent)">120</text>
  <text x="120" y="398" font-family="Segoe UI, Arial, sans-serif" font-size="28" fill="#cbd5e1" letter-spacing="2">PROJECTS</text>
  <g transform="translate(760 180)">
    <rect x="0" y="0" width="220" height="220" rx="26" fill="#0f172a" stroke="#22c55e" stroke-width="4"/>
    <path d="M55 170 L95 130 L130 145 L166 108 L185 118 L185 170 Z" fill="#22c55e" opacity="0.9"/>
    <path d="M60 140 L95 100 L130 115 L165 82 L185 92 L185 170 L60 170 Z" fill="#34d399" opacity="0.8"/>
    <circle cx="120" cy="76" r="15" fill="#a7f3d0"/>
    <rect x="55" y="52" width="60" height="10" rx="5" fill="#6ee7b7" opacity="0.7"/>
    <rect x="55" y="70" width="88" height="10" rx="5" fill="#6ee7b7" opacity="0.5"/>
  </g>
</svg>
